<?xml version="1.0" standalone="no"?>
<!DOCTYPE svg PUBLIC "-//W3C//DTD SVG 20010904//EN"
 "http://www.w3.org/TR/2001/REC-SVG-20010904/DTD/svg10.dtd">
<svg version="1.0" xmlns="http://www.w3.org/2000/svg"
 width="768.000000pt" height="768.000000pt" viewBox="0 0 768.000000 768.000000"
 preserveAspectRatio="xMidYMid meet">
<metadata>
Created by potrace 1.16, written by Peter Selinger 2001-2019
</metadata>
<g transform="translate(0.000000,768.000000) scale(0.100000,-0.100000)"
fill="#000000" stroke="none">
<path d="M3440 5830 c0 -5 11 -10 25 -10 14 0 25 5 25 10 0 6 -11 10 -25 10
-14 0 -25 -4 -25 -10z"/>
<path d="M3635 5828 c-687 -77 -1336 -565 -1635 -1229 -151 -336 -204 -754
-141 -1115 37 -212 81 -346 175 -528 72 -141 133 -213 214 -253 l57 -28 587
-5 c673 -6 617 3 642 -102 41 -179 201 -287 376 -256 69 12 124 44 179 103 46
51 66 89 82 164 19 92 -28 85 638 91 l586 5 57 28 c133 65 264 284 343 572 86
316 98 616 34 929 -106 530 -470 1038 -962 1342 -362 225 -818 329 -1232 282z
m-141 -618 c120 -30 216 -81 296 -156 l68 -65 28 36 c68 89 228 171 389 199
150 26 141 31 155 -71 23 -157 -2 -322 -63 -426 -38 -65 -128 -142 -192 -166
-67 -25 -205 -30 -205 -8 0 42 181 347 264 446 20 24 34 46 31 49 -11 11 -178
-112 -249 -183 -40 -40 -92 -103 -115 -139 -24 -36 -46 -66 -50 -66 -4 0 -29
34 -56 76 -59 90 -165 193 -278 268 -45 30 -83 53 -85 51 -2 -2 19 -32 46 -67
76 -97 160 -233 213 -343 l48 -100 -57 -3 c-82 -5 -152 13 -220 57 -146 95
-219 290 -192 515 16 136 11 130 84 122 33 -3 97 -15 140 -26z m-523 -130 c12
-7 19 -21 19 -40 0 -23 -5 -31 -25 -36 -15 -4 -32 -1 -40 6 -20 17 -19 57 3
69 21 13 20 13 43 1z m150 0 c40 -22 13 -89 -30 -75 -29 9 -36 42 -15 66 20
22 20 22 45 9z m1540 0 c12 -7 19 -21 19 -40 0 -23 -5 -31 -25 -36 -47 -12
-71 31 -38 68 19 21 19 21 44 8z m170 -11 c18 -18 19 -23 6 -42 -17 -26 -43
-33 -62 -17 -20 17 -19 57 3 69 24 15 29 14 53 -10z m-2132 -504 c181 -12 429
-75 618 -155 129 -56 210 -100 350 -193 l92 -61 3 -60 3 -61 87 -3 87 -3 3 68
3 68 100 67 c301 204 706 333 1059 339 l110 2 111 -296 c62 -163 110 -298 108
-301 -2 -2 -21 0 -41 5 -89 21 -306 6 -462 -32 -116 -28 -306 -96 -416 -149
-197 -95 -394 -237 -394 -285 0 -46 51 -91 87 -78 10 4 61 37 114 74 269 191
654 329 920 329 l94 0 58 -109 c54 -103 68 -139 48 -127 -5 4 -49 10 -97 15
-157 16 -405 -16 -629 -80 -309 -88 -595 -243 -595 -321 0 -33 36 -78 62 -78
12 0 69 28 127 63 250 150 551 242 878 269 113 9 145 9 157 -1 8 -7 38 -48 65
-91 l50 -79 -192 0 c-210 0 -306 -9 -502 -47 -293 -57 -543 -152 -734 -278
-47 -31 -86 -56 -88 -56 -2 0 -3 187 -3 415 l0 416 -87 -3 -88 -3 -5 -412 -5
-413 -75 51 c-192 131 -439 226 -735 283 -194 37 -300 47 -511 48 l-192 0 51
81 c29 45 56 85 62 89 16 12 104 9 237 -8 318 -40 603 -136 834 -280 39 -24
80 -44 92 -44 11 0 30 12 42 27 49 62 -3 125 -180 217 -128 66 -179 87 -339
137 -245 77 -544 120 -698 99 -47 -6 -87 -10 -88 -8 -2 2 22 54 52 117 l56
114 126 -6 c295 -13 667 -157 940 -364 73 -55 145 -36 143 38 -1 42 -27 68
-157 154 -198 133 -470 247 -700 295 -119 25 -341 37 -405 22 -24 -6 -46 -10
-47 -8 -2 1 20 61 48 132 28 71 78 201 111 289 33 88 64 165 70 172 6 8 30 11
66 8 32 -2 95 -7 141 -10z m51 -1430 c163 -25 319 -62 461 -111 203 -69 299
-117 449 -225 78 -56 115 -69 192 -69 73 0 104 13 226 94 250 166 584 278 963
321 74 9 181 15 239 13 l105 -3 3 -144 c2 -122 0 -147 -14 -162 -15 -17 -51
-18 -588 -21 l-571 -3 -62 -34 c-73 -39 -108 -85 -129 -168 -20 -76 -53 -126
-101 -149 -97 -47 -205 6 -233 115 -24 91 -36 115 -77 155 -83 82 -64 80 -703
84 -501 3 -567 5 -582 19 -16 14 -18 35 -18 166 l0 150 168 -6 c92 -4 214 -14
272 -22z"/>
<path d="M3328 5203 c6 -2 18 -2 25 0 6 3 1 5 -13 5 -14 0 -19 -2 -12 -5z"/>
<path d="M4353 5203 c9 -2 23 -2 30 0 6 3 -1 5 -18 5 -16 0 -22 -2 -12 -5z"/>
<path d="M4402 5015 c0 -16 2 -22 5 -12 2 9 2 23 0 30 -3 6 -5 -1 -5 -18z"/>
<path d="M4137 4820 c-16 -19 -16 -20 3 -20 13 0 20 7 20 20 0 11 -1 20 -3 20
-1 0 -10 -9 -20 -20z"/>
<path d="M3336 4792 c7 -4 14 -18 17 -32 4 -21 4 -20 6 8 1 24 -3 32 -16 32
-12 0 -14 -3 -7 -8z"/>
<path d="M3602 4740 c0 -14 2 -19 5 -12 2 6 2 18 0 25 -3 6 -5 1 -5 -13z"/>
<path d="M5200 4496 c0 -9 5 -16 10 -16 6 0 10 4 10 9 0 6 -4 13 -10 16 -5 3
-10 -1 -10 -9z"/>
<path d="M2960 4490 c0 -5 9 -10 21 -10 11 0 17 5 14 10 -3 6 -13 10 -21 10
-8 0 -14 -4 -14 -10z"/>
<path d="M4690 4490 c-12 -8 -11 -10 8 -10 12 0 22 5 22 10 0 13 -11 13 -30 0z"/>
<path d="M2460 4425 c0 -14 5 -25 10 -25 6 0 10 11 10 25 0 14 -4 25 -10 25
-5 0 -10 -11 -10 -25z"/>
<path d="M4455 4410 c-3 -5 1 -10 9 -10 9 0 16 5 16 10 0 6 -4 10 -9 10 -6 0
-13 -4 -16 -10z"/>
<path d="M5282 4283 c-2 -32 2 -43 13 -43 8 0 15 5 15 10 0 6 -4 10 -9 10 -6
0 -12 15 -14 33 -3 28 -4 26 -5 -10z"/>
<path d="M4125 4250 c-3 -5 3 -10 14 -10 12 0 21 5 21 10 0 6 -6 10 -14 10 -8
0 -18 -4 -21 -10z"/>
<path d="M4960 3989 c0 -5 5 -7 10 -4 6 3 10 8 10 11 0 2 -4 4 -10 4 -5 0 -10
-5 -10 -11z"/>
<path d="M3722 3944 c-16 -11 -22 -25 -22 -53 0 -63 17 -71 158 -71 134 0 142
4 142 69 0 59 -26 71 -148 71 -81 0 -113 -4 -130 -16z"/>
<path d="M3178 3833 c7 -3 16 -2 19 1 4 3 -2 6 -13 5 -11 0 -14 -3 -6 -6z"/>
<path d="M4493 3833 c9 -2 23 -2 30 0 6 3 -1 5 -18 5 -16 0 -22 -2 -12 -5z"/>
<path d="M2720 3770 c0 -5 9 -10 21 -10 11 0 17 5 14 10 -3 6 -13 10 -21 10
-8 0 -14 -4 -14 -10z"/>
<path d="M4935 3770 c-3 -5 1 -10 9 -10 9 0 16 5 16 10 0 6 -4 10 -9 10 -6 0
-13 -4 -16 -10z"/>
<path d="M5360 3696 c0 -9 5 -16 10 -16 6 0 10 4 10 9 0 6 -4 13 -10 16 -5 3
-10 -1 -10 -9z"/>
<path d="M2960 3690 c0 -6 7 -10 15 -10 8 0 15 2 15 4 0 2 -7 6 -15 10 -8 3
-15 1 -15 -4z"/>
<path d="M3120 3616 c0 -12 9 -16 33 -15 21 1 25 3 12 6 -11 3 -26 10 -32 15
-10 8 -13 6 -13 -6z"/>
<path d="M4535 3610 c-19 -8 -19 -9 3 -9 12 -1 22 4 22 9 0 6 -1 10 -2 9 -2 0
-12 -4 -23 -9z"/>
<path d="M2861 3596 c9 -8 99 -13 99 -5 0 5 -23 9 -52 9 -28 0 -49 -2 -47 -4z"/>
<path d="M4808 3593 c6 -2 18 -2 25 0 6 3 1 5 -13 5 -14 0 -19 -2 -12 -5z"/>
<path d="M3280 3530 c0 -5 5 -10 10 -10 6 0 10 5 10 10 0 6 -4 10 -10 10 -5 0
-10 -4 -10 -10z"/>
<path d="M3170 3516 c0 -2 7 -6 15 -10 8 -3 15 -1 15 4 0 6 -7 10 -15 10 -8 0
-15 -2 -15 -4z"/>
<path d="M3592 3465 c0 -16 2 -22 5 -12 2 9 2 23 0 30 -3 6 -5 -1 -5 -18z"/>
<path d="M5258 3443 c12 -2 30 -2 40 0 9 3 -1 5 -23 4 -22 0 -30 -2 -17 -4z"/>
<path d="M4320 3430 c0 -5 4 -10 9 -10 6 0 13 5 16 10 3 6 -1 10 -9 10 -9 0
-16 -4 -16 -10z"/>
<path d="M2880 3368 c0 -5 18 -8 40 -8 22 0 40 2 40 4 0 2 -18 6 -40 8 -22 2
-40 0 -40 -4z"/>
<path d="M5360 3370 c0 -5 5 -10 11 -10 5 0 7 5 4 10 -3 6 -8 10 -11 10 -2 0
-4 -4 -4 -10z"/>
<path d="M4748 3363 c12 -2 30 -2 40 0 9 3 -1 5 -23 4 -22 0 -30 -2 -17 -4z"/>
<path d="M3498 3353 c7 -3 16 -2 19 1 4 3 -2 6 -13 5 -11 0 -14 -3 -6 -6z"/>
<path d="M3120 3290 c0 -5 14 -10 31 -10 17 0 28 4 24 10 -3 6 -17 10 -31 10
-13 0 -24 -4 -24 -10z"/>
<path d="M4540 3290 c-13 -8 -12 -10 3 -10 9 0 17 5 17 10 0 12 -1 12 -20 0z"/>
<path d="M3591 3264 c0 -11 3 -14 6 -6 3 7 2 16 -1 19 -3 4 -6 -2 -5 -13z"/>
<path d="M4640 3270 c0 -13 30 -13 50 0 11 7 7 10 -17 10 -18 0 -33 -4 -33
-10z"/>
<path d="M4387 3214 c-3 -5 1 -15 9 -22 16 -14 18 -5 5 17 -5 7 -11 9 -14 5z"/>
<path d="M2418 3123 c46 -2 118 -2 160 0 42 1 5 3 -83 3 -88 0 -123 -2 -77 -3z"/>
<path d="M5118 3123 c46 -2 118 -2 160 0 42 1 5 3 -83 3 -88 0 -123 -2 -77 -3z"/>
<path d="M4660 3050 c-11 -7 -5 -10 23 -10 20 0 37 5 37 10 0 13 -40 13 -60 0z"/>
<path d="M3038 3043 c7 -3 16 -2 19 1 4 3 -2 6 -13 5 -11 0 -14 -3 -6 -6z"/>
<path d="M3448 2883 c7 -3 16 -2 19 1 4 3 -2 6 -13 5 -11 0 -14 -3 -6 -6z"/>
<path d="M2722 2868 c4 -10 38 -14 139 -16 74 -1 144 0 157 3 54 13 11 20
-139 23 -130 3 -160 1 -157 -10z"/>
<path d="M3280 2865 c0 -11 11 -15 40 -15 29 0 40 4 40 15 0 11 -11 15 -40 15
-29 0 -40 -4 -40 -15z"/>
<path d="M4480 2865 c0 -13 24 -15 160 -15 136 0 160 2 160 15 0 13 -24 15
-160 15 -136 0 -160 -2 -160 -15z"/>
<path d="M3680 2735 c0 -8 7 -15 16 -15 14 0 14 3 4 15 -7 8 -14 15 -16 15 -2
0 -4 -7 -4 -15z"/>
<path d="M3998 2699 c2 -16 8 -29 13 -29 14 0 10 47 -4 53 -10 4 -12 -3 -9
-24z"/>
<path d="M3730 2556 c0 -2 7 -9 15 -16 12 -10 15 -10 15 4 0 9 -7 16 -15 16
-8 0 -15 -2 -15 -4z"/>
<path d="M4200 5830 c20 -13 40 -13 40 0 0 6 -12 10 -27 10 -22 0 -25 -2 -13
-10z"/>
<path d="M4505 5753 c17 -3 36 -9 43 -15 9 -8 12 -6 12 6 0 12 -9 16 -42 15
-35 -2 -37 -3 -13 -6z"/>
<path d="M2965 5670 c4 -6 11 -8 16 -5 14 9 11 15 -7 15 -8 0 -12 -5 -9 -10z"/>
<path d="M4705 5670 c3 -5 8 -10 11 -10 2 0 4 5 4 10 0 6 -5 10 -11 10 -5 0
-7 -4 -4 -10z"/>
<path d="M4845 5590 c3 -5 13 -10 21 -10 8 0 14 5 14 10 0 6 -9 10 -21 10 -11
0 -17 -4 -14 -10z"/>
<path d="M5180 5350 c0 -5 5 -10 10 -10 6 0 10 5 10 10 0 6 -4 10 -10 10 -5 0
-10 -4 -10 -10z"/>
<path d="M5256 5273 c5 -5 12 -12 16 -18 4 -6 8 -2 8 8 0 9 -7 17 -17 17 -9 0
-12 -3 -7 -7z"/>
<path d="M5340 5190 c0 -5 5 -10 10 -10 6 0 10 5 10 10 0 6 -4 10 -10 10 -5 0
-10 -4 -10 -10z"/>
<path d="M5410 5116 c0 -2 7 -9 15 -16 12 -10 15 -10 15 4 0 9 -7 16 -15 16
-8 0 -15 -2 -15 -4z"/>
<path d="M5580 4870 c0 -5 5 -10 10 -10 6 0 10 5 10 10 0 6 -4 10 -10 10 -5 0
-10 -4 -10 -10z"/>
<path d="M2000 4704 c0 -8 5 -12 10 -9 6 3 10 10 10 16 0 5 -4 9 -10 9 -5 0
-10 -7 -10 -16z"/>
<path d="M1921 4518 c1 -28 3 -34 6 -18 3 14 9 29 14 35 14 14 11 25 -6 25
-11 0 -15 -11 -14 -42z"/>
<path d="M5751 4544 c0 -11 3 -14 6 -6 3 7 2 16 -1 19 -3 4 -6 -2 -5 -13z"/>
<path d="M1840 4224 c0 -8 5 -12 10 -9 6 3 10 10 10 16 0 5 -4 9 -10 9 -5 0
-10 -7 -10 -16z"/>
<path d="M1840 3370 c0 -5 5 -10 10 -10 6 0 10 5 10 10 0 6 -4 10 -10 10 -5 0
-10 -4 -10 -10z"/>
<path d="M5825 3290 c-3 -5 -1 -10 4 -10 6 0 11 5 11 10 0 6 -2 10 -4 10 -3 0
-8 -4 -11 -10z"/>
<path d="M5752 3060 c0 -14 2 -19 5 -12 2 6 2 18 0 25 -3 6 -5 1 -5 -13z"/>
<path d="M4840 2650 l-595 -5 598 -3 c393 -1 597 1 597 8 0 6 -1 9 -2 8 -2 -2
-271 -5 -598 -8z"/>
<path d="M2598 2643 c155 -2 409 -2 565 0 155 1 28 2 -283 2 -311 0 -438 -1
-282 -2z"/>
<path d="M2836 2470 l-500 -5 61 -70 c360 -418 886 -656 1448 -656 512 0 981
187 1347 539 74 71 168 179 168 193 0 2 -227 4 -504 4 l-503 0 -36 -76 c-79
-167 -272 -289 -458 -289 -211 0 -410 128 -485 312 -10 26 -23 49 -29 50 -5 2
-235 1 -509 -2z"/>
<path d="M3420 2385 c0 -8 5 -15 10 -15 6 0 10 7 10 15 0 8 -4 15 -10 15 -5 0
-10 -7 -10 -15z"/>
<path d="M3560 2237 c0 -1 9 -10 20 -20 19 -16 20 -16 20 3 0 13 -7 20 -20 20
-11 0 -20 -1 -20 -3z"/>
<path d="M2560 2170 c0 -6 7 -10 15 -10 8 0 15 2 15 4 0 2 -7 6 -15 10 -8 3
-15 1 -15 -4z"/>
<path d="M3723 2153 c9 -2 23 -2 30 0 6 3 -1 5 -18 5 -16 0 -22 -2 -12 -5z"/>
<path d="M3938 2153 c12 -2 32 -2 45 0 12 2 2 4 -23 4 -25 0 -35 -2 -22 -4z"/>
<path d="M5015 2090 c-3 -5 1 -10 9 -10 9 0 16 5 16 10 0 6 -4 10 -9 10 -6 0
-13 -4 -16 -10z"/>
<path d="M4785 1941 c-6 -5 -19 -11 -30 -14 -13 -3 -9 -5 13 -6 22 -1 32 4 32
14 0 17 -2 18 -15 6z"/>
</g>
</svg>
